<svg id="svg2" xmlns="http://www.w3.org/2000/svg" viewBox="0 0 2070.72 575.93"><defs><style>.cls-1{fill:#d40317;}.cls-2,.cls-3{fill:none;}.cls-3{stroke:#fff;stroke-width:2px;}.cls-4{fill:#fff;}</style></defs><title>marvel</title><rect class="cls-1" y="180.73" width="2070.72" height="220.36"/><rect class="cls-2" x="787.15" width="445.04" height="575.93"/><g id="layer2"><path id="path4142" class="cls-3" d="M63.15,44.39h304v123h-304Z" transform="translate(820.21 185.02)"/></g><g id="g2505"><path id="path2509" class="cls-4" d="M325.58,54h17.21v84.24h14.59v21.25h-31.8V54Z" transform="translate(820.21 185.02)"/><path id="path2515" class="cls-4" d="M207,104.24c12.34-.78,11.22-16.62,11.22-16.62C216.34,72.16,207,72.94,207,72.94Zm-39.66,24.34-5.24-32.07-4.49,32.07ZM72.68,159.11V54H95.87l8.23,44.05,9.36-44H135.9v94.67L150.5,54h22.82l14.21,94.67V54.39h30.31s10.47,1.93,15.71,17L231.31,54h18.33l8.6,54.49,9-54.1h51.63V74.1H303.51V95.74H318.1v22H303.88v20.1h15v21.25h-33.3V57.87L268.34,159.11H247.77L236.92,91.87s-1.87,18.55-12,27.05L238,159.11h-18l-12.72-35.17v35.17H171.07l-1.87-10.05H155.36l-3,10.05H118V120.47l-9,38.64H99.62l-8.24-38.26v37.87Z" transform="translate(820.21 185.02)"/></g></svg>